<mxfile host="Electron" modified="2024-02-23T12:21:15.289Z" agent="Mozilla/5.0 (Macintosh; Intel Mac OS X 10_15_7) AppleWebKit/537.36 (KHTML, like Gecko) draw.io/23.0.2 Chrome/120.0.6099.109 Electron/28.1.0 Safari/537.36" etag="wk0wTW_86Bb5mGipchgr" version="23.0.2" type="device">
  <diagram name="Page-1" id="5d7acffa-a066-3a61-03fe-96351882024d">
    <mxGraphModel dx="5922" dy="1571" grid="0" gridSize="10" guides="1" tooltips="1" connect="1" arrows="1" fold="1" page="1" pageScale="1" pageWidth="1169" pageHeight="827" background="#000000" math="0" shadow="0">
      <root>
        <mxCell id="0" />
        <mxCell id="1" parent="0" />
        <mxCell id="llshWdPmbfucuasrwV5s-151" value="MapBox, ViewModel, Compose" style="rounded=0;whiteSpace=wrap;html=1;fillColor=#0f0f0f;strokeColor=none;fontFamily=Avenir;" parent="1" vertex="1">
          <mxGeometry x="-2260" y="2220" width="1048" height="109" as="geometry" />
        </mxCell>
        <mxCell id="llshWdPmbfucuasrwV5s-121" value="" style="rounded=1;whiteSpace=wrap;html=1;strokeColor=none;arcSize=6;fontFamily=Avenir;" parent="1" vertex="1">
          <mxGeometry x="-2002" y="1718" width="466" height="323" as="geometry" />
        </mxCell>
        <mxCell id="llshWdPmbfucuasrwV5s-47" value="" style="endArrow=none;html=1;rounded=0;entryX=0.493;entryY=0.942;entryDx=0;entryDy=0;entryPerimeter=0;startArrow=classic;startFill=1;fontFamily=Avenir;" parent="1" source="llshWdPmbfucuasrwV5s-44" target="llshWdPmbfucuasrwV5s-39" edge="1">
          <mxGeometry width="50" height="50" relative="1" as="geometry">
            <mxPoint x="-1037" y="1426" as="sourcePoint" />
            <mxPoint x="-987" y="1376" as="targetPoint" />
          </mxGeometry>
        </mxCell>
        <mxCell id="llshWdPmbfucuasrwV5s-61" value="Flow&amp;lt;*&amp;gt;" style="edgeLabel;html=1;align=center;verticalAlign=middle;resizable=0;points=[];fontFamily=Avenir;" parent="llshWdPmbfucuasrwV5s-47" vertex="1" connectable="0">
          <mxGeometry x="0.5598" y="-1" relative="1" as="geometry">
            <mxPoint y="-1" as="offset" />
          </mxGeometry>
        </mxCell>
        <mxCell id="llshWdPmbfucuasrwV5s-63" value="Flow&amp;lt;*&amp;gt;" style="edgeLabel;html=1;align=center;verticalAlign=middle;resizable=0;points=[];fontFamily=Avenir;" parent="llshWdPmbfucuasrwV5s-47" vertex="1" connectable="0">
          <mxGeometry x="-0.6498" y="-1" relative="1" as="geometry">
            <mxPoint x="1" y="-7" as="offset" />
          </mxGeometry>
        </mxCell>
        <mxCell id="21ea969265ad0168-26" value="&lt;b&gt;Websocket client api&lt;/b&gt;" style="swimlane;html=1;fontStyle=0;childLayout=stackLayout;horizontal=1;startSize=26;fillColor=#6a00ff;horizontalStack=0;resizeParent=1;resizeLast=0;collapsible=1;marginBottom=0;swimlaneFillColor=default;align=center;rounded=1;shadow=0;comic=0;labelBackgroundColor=none;strokeWidth=1;fontFamily=Avenir;fontSize=12;fontColor=#ffffff;strokeColor=#3700CC;" parent="1" vertex="1">
          <mxGeometry x="-2062" y="1110" width="191" height="80" as="geometry" />
        </mxCell>
        <mxCell id="21ea969265ad0168-27" value="Trace service" style="text;html=1;strokeColor=none;fillColor=none;spacingLeft=4;spacingRight=4;whiteSpace=wrap;overflow=hidden;rotatable=0;points=[[0,0.5],[1,0.5]];portConstraint=eastwest;fontColor=#ffffff;align=center;fontFamily=Avenir;fontStyle=0" parent="21ea969265ad0168-26" vertex="1">
          <mxGeometry y="26" width="191" height="26" as="geometry" />
        </mxCell>
        <mxCell id="21ea969265ad0168-28" value="Route service" style="text;html=1;spacingLeft=4;spacingRight=4;whiteSpace=wrap;overflow=hidden;rotatable=0;points=[[0,0.5],[1,0.5]];portConstraint=eastwest;align=center;fontFamily=Avenir;fontStyle=0" parent="21ea969265ad0168-26" vertex="1">
          <mxGeometry y="52" width="191" height="26" as="geometry" />
        </mxCell>
        <mxCell id="llshWdPmbfucuasrwV5s-8" value="&lt;font style=&quot;font-size: 10px;&quot;&gt;Flow&amp;lt;NetworkTrace&amp;gt;&lt;/font&gt;" style="text;html=1;strokeColor=none;fillColor=none;align=center;verticalAlign=middle;whiteSpace=wrap;rounded=0;fontFamily=Avenir;fontStyle=0" parent="1" vertex="1">
          <mxGeometry x="-2090" y="1217" width="135" height="30" as="geometry" />
        </mxCell>
        <mxCell id="llshWdPmbfucuasrwV5s-9" value="&lt;font style=&quot;font-size: 10px;&quot;&gt;Flow&amp;lt;NetworkRoute&amp;gt;&lt;/font&gt;" style="text;html=1;strokeColor=none;fillColor=none;align=center;verticalAlign=middle;whiteSpace=wrap;rounded=0;fontFamily=Avenir;fontStyle=0" parent="1" vertex="1">
          <mxGeometry x="-1983" y="1217" width="135" height="30" as="geometry" />
        </mxCell>
        <mxCell id="llshWdPmbfucuasrwV5s-20" value="&lt;b&gt;Repositories&lt;/b&gt;" style="swimlane;html=1;fontStyle=0;childLayout=stackLayout;horizontal=1;startSize=26;fillColor=#d80073;horizontalStack=0;resizeParent=1;resizeLast=0;collapsible=1;marginBottom=0;swimlaneFillColor=default;align=center;rounded=1;shadow=0;comic=0;labelBackgroundColor=none;strokeWidth=1;fontFamily=Avenir;fontSize=12;fontColor=#ffffff;strokeColor=#A50040;" parent="1" vertex="1">
          <mxGeometry x="-1811" y="1436" width="191" height="142" as="geometry" />
        </mxCell>
        <mxCell id="llshWdPmbfucuasrwV5s-21" value="Trace repository" style="text;html=1;spacingLeft=4;spacingRight=4;whiteSpace=wrap;overflow=hidden;rotatable=0;points=[[0,0.5],[1,0.5]];portConstraint=eastwest;align=center;fontFamily=Avenir;fontStyle=0;strokeColor=none;" parent="llshWdPmbfucuasrwV5s-20" vertex="1">
          <mxGeometry y="26" width="191" height="26" as="geometry" />
        </mxCell>
        <mxCell id="llshWdPmbfucuasrwV5s-22" value="Route repository" style="text;html=1;spacingLeft=4;spacingRight=4;whiteSpace=wrap;overflow=hidden;rotatable=0;points=[[0,0.5],[1,0.5]];portConstraint=eastwest;align=center;fontFamily=Avenir;fontStyle=0;strokeColor=none;" parent="llshWdPmbfucuasrwV5s-20" vertex="1">
          <mxGeometry y="52" width="191" height="26" as="geometry" />
        </mxCell>
        <mxCell id="llshWdPmbfucuasrwV5s-26" value="Node repository" style="text;html=1;spacingLeft=4;spacingRight=4;whiteSpace=wrap;overflow=hidden;rotatable=0;points=[[0,0.5],[1,0.5]];portConstraint=eastwest;align=center;fontFamily=Avenir;fontStyle=0;strokeColor=none;" parent="llshWdPmbfucuasrwV5s-20" vertex="1">
          <mxGeometry y="78" width="191" height="26" as="geometry" />
        </mxCell>
        <mxCell id="llshWdPmbfucuasrwV5s-35" value="Connection Events repository" style="text;html=1;spacingLeft=4;spacingRight=4;whiteSpace=wrap;overflow=hidden;rotatable=0;points=[[0,0.5],[1,0.5]];portConstraint=eastwest;align=center;fontFamily=Avenir;fontStyle=0;strokeColor=none;" parent="llshWdPmbfucuasrwV5s-20" vertex="1">
          <mxGeometry y="104" width="191" height="26" as="geometry" />
        </mxCell>
        <mxCell id="llshWdPmbfucuasrwV5s-23" value="Endless foreground service" style="swimlane;html=1;fontStyle=0;childLayout=stackLayout;horizontal=1;startSize=26;fillColor=#e51400;horizontalStack=0;resizeParent=1;resizeLast=0;collapsible=1;marginBottom=0;swimlaneFillColor=default;align=center;rounded=1;shadow=0;comic=0;labelBackgroundColor=none;strokeWidth=1;fontFamily=Avenir;fontSize=12;fontColor=#ffffff;strokeColor=#B20000;" parent="1" vertex="1">
          <mxGeometry x="-2239" y="1473" width="187" height="80" as="geometry" />
        </mxCell>
        <mxCell id="llshWdPmbfucuasrwV5s-24" value="Triggers websocket connections" style="text;html=1;strokeColor=none;fillColor=none;spacingLeft=4;spacingRight=4;whiteSpace=wrap;overflow=hidden;rotatable=0;points=[[0,0.5],[1,0.5]];portConstraint=eastwest;fontColor=#ffffff;align=center;fontFamily=Avenir;fontStyle=0" parent="llshWdPmbfucuasrwV5s-23" vertex="1">
          <mxGeometry y="26" width="187" height="26" as="geometry" />
        </mxCell>
        <mxCell id="llshWdPmbfucuasrwV5s-161" value="Displays notifications" style="text;html=1;strokeColor=none;fillColor=none;spacingLeft=4;spacingRight=4;whiteSpace=wrap;overflow=hidden;rotatable=0;points=[[0,0.5],[1,0.5]];portConstraint=eastwest;fontColor=#ffffff;align=center;fontFamily=Avenir;fontStyle=0" parent="llshWdPmbfucuasrwV5s-23" vertex="1">
          <mxGeometry y="52" width="187" height="26" as="geometry" />
        </mxCell>
        <mxCell id="llshWdPmbfucuasrwV5s-27" value="&lt;b&gt;Local data source&lt;/b&gt;" style="swimlane;html=1;fontStyle=0;childLayout=stackLayout;horizontal=1;startSize=26;fillColor=#647687;horizontalStack=0;resizeParent=1;resizeLast=0;collapsible=1;marginBottom=0;swimlaneFillColor=default;align=center;rounded=1;shadow=0;comic=0;labelBackgroundColor=none;strokeWidth=1;fontFamily=Avenir;fontSize=12;fontColor=#ffffff;strokeColor=#314354;" parent="1" vertex="1">
          <mxGeometry x="-1364" y="1264" width="191" height="55" as="geometry" />
        </mxCell>
        <mxCell id="llshWdPmbfucuasrwV5s-28" value="DAOs&amp;nbsp;&amp;nbsp;all-in-one source" style="text;html=1;strokeColor=none;fillColor=none;spacingLeft=4;spacingRight=4;whiteSpace=wrap;overflow=hidden;rotatable=0;points=[[0,0.5],[1,0.5]];portConstraint=eastwest;fontColor=#ffffff;align=center;fontFamily=Avenir;fontStyle=0" parent="llshWdPmbfucuasrwV5s-27" vertex="1">
          <mxGeometry y="26" width="191" height="29" as="geometry" />
        </mxCell>
        <mxCell id="llshWdPmbfucuasrwV5s-31" value="&lt;b&gt;Remote data source&lt;/b&gt;" style="swimlane;html=1;fontStyle=0;childLayout=stackLayout;horizontal=1;startSize=26;fillColor=#647687;horizontalStack=0;resizeParent=1;resizeLast=0;collapsible=1;marginBottom=0;swimlaneFillColor=default;align=center;rounded=1;shadow=0;comic=0;labelBackgroundColor=none;strokeWidth=1;fontFamily=Avenir;fontSize=12;fontColor=#ffffff;strokeColor=#314354;" parent="1" vertex="1">
          <mxGeometry x="-2062" y="1281" width="191" height="53" as="geometry" />
        </mxCell>
        <mxCell id="llshWdPmbfucuasrwV5s-32" value="Network all-in-one source" style="text;html=1;strokeColor=none;fillColor=none;spacingLeft=4;spacingRight=4;whiteSpace=wrap;overflow=hidden;rotatable=0;points=[[0,0.5],[1,0.5]];portConstraint=eastwest;fontColor=#ffffff;align=center;fontFamily=Avenir;fontStyle=0" parent="llshWdPmbfucuasrwV5s-31" vertex="1">
          <mxGeometry y="26" width="191" height="26" as="geometry" />
        </mxCell>
        <mxCell id="llshWdPmbfucuasrwV5s-38" value="&lt;b&gt;Room in-memory&lt;/b&gt;" style="swimlane;html=1;fontStyle=0;childLayout=stackLayout;horizontal=1;startSize=26;horizontalStack=0;resizeParent=1;resizeLast=0;collapsible=1;marginBottom=0;swimlaneFillColor=default;align=center;rounded=1;shadow=0;comic=0;labelBackgroundColor=none;strokeWidth=1;fontFamily=Avenir;fontSize=12;fillColor=#60a917;fontColor=#ffffff;strokeColor=#2D7600;" parent="1" vertex="1">
          <mxGeometry x="-1364" y="1372.5" width="191" height="53" as="geometry" />
        </mxCell>
        <mxCell id="llshWdPmbfucuasrwV5s-39" value="&lt;font style=&quot;font-size: 10px;&quot;&gt;TraceEntity, RouteEntity, NodeEntity&lt;/font&gt;" style="text;html=1;strokeColor=none;fillColor=none;spacingLeft=4;spacingRight=4;whiteSpace=wrap;overflow=hidden;rotatable=0;points=[[0,0.5],[1,0.5]];portConstraint=eastwest;fontColor=#ffffff;align=center;fontFamily=Avenir;fontStyle=0" parent="llshWdPmbfucuasrwV5s-38" vertex="1">
          <mxGeometry y="26" width="191" height="27" as="geometry" />
        </mxCell>
        <mxCell id="llshWdPmbfucuasrwV5s-43" value="" style="endArrow=classic;startArrow=none;html=1;rounded=0;entryX=0.5;entryY=0;entryDx=0;entryDy=0;startFill=0;fontFamily=Avenir;" parent="1" source="llshWdPmbfucuasrwV5s-28" target="llshWdPmbfucuasrwV5s-38" edge="1">
          <mxGeometry width="50" height="50" relative="1" as="geometry">
            <mxPoint x="-1026" y="1416" as="sourcePoint" />
            <mxPoint x="-976" y="1366" as="targetPoint" />
          </mxGeometry>
        </mxCell>
        <mxCell id="llshWdPmbfucuasrwV5s-59" value="&lt;font&gt;Flow&amp;lt;*&amp;gt;&lt;/font&gt;" style="edgeLabel;html=1;align=center;verticalAlign=middle;resizable=0;points=[];fontFamily=Avenir;" parent="llshWdPmbfucuasrwV5s-43" vertex="1" connectable="0">
          <mxGeometry x="-0.0533" relative="1" as="geometry">
            <mxPoint as="offset" />
          </mxGeometry>
        </mxCell>
        <mxCell id="llshWdPmbfucuasrwV5s-44" value="&lt;b&gt;Room local-file&lt;/b&gt;" style="swimlane;html=1;fontStyle=0;childLayout=stackLayout;horizontal=1;startSize=26;horizontalStack=0;resizeParent=1;resizeLast=0;collapsible=1;marginBottom=0;swimlaneFillColor=default;align=center;rounded=1;shadow=0;comic=0;labelBackgroundColor=none;strokeWidth=1;fontFamily=Avenir;fontSize=12;fillColor=#60a917;fontColor=#ffffff;strokeColor=#2D7600;" parent="1" vertex="1">
          <mxGeometry x="-1364" y="1527.5" width="191" height="53" as="geometry" />
        </mxCell>
        <mxCell id="llshWdPmbfucuasrwV5s-45" value="(not implemented yet)" style="text;html=1;strokeColor=none;fillColor=none;spacingLeft=4;spacingRight=4;whiteSpace=wrap;overflow=hidden;rotatable=0;points=[[0,0.5],[1,0.5]];portConstraint=eastwest;fontColor=#ffffff;align=center;fontFamily=Avenir;fontStyle=0" parent="llshWdPmbfucuasrwV5s-44" vertex="1">
          <mxGeometry y="26" width="191" height="27" as="geometry" />
        </mxCell>
        <mxCell id="llshWdPmbfucuasrwV5s-46" value="&lt;font&gt;&lt;b&gt;Flow Buffer&lt;/b&gt;&lt;/font&gt;" style="html=1;rounded=0;shadow=0;comic=0;labelBackgroundColor=none;strokeWidth=2;fontFamily=Avenir;fontSize=12;align=center;shape=mxgraph.ios7ui.horLines;fillColor=#647687;strokeColor=#314354;fontColor=#ffffff;" parent="1" vertex="1">
          <mxGeometry x="-1336" y="1460.75" width="135" height="21" as="geometry" />
        </mxCell>
        <mxCell id="llshWdPmbfucuasrwV5s-49" style="html=1;labelBackgroundColor=none;startFill=1;startSize=8;endFill=1;endSize=8;fontFamily=Avenir;fontSize=12;fillColor=#6a00ff;strokeColor=#F5F5F5;fontStyle=0;exitX=0.75;exitY=0;exitDx=0;exitDy=0;startArrow=classic;edgeStyle=orthogonalEdgeStyle;" parent="1" source="llshWdPmbfucuasrwV5s-20" target="llshWdPmbfucuasrwV5s-27" edge="1">
          <mxGeometry relative="1" as="geometry">
            <mxPoint x="-1242" y="1104" as="sourcePoint" />
            <mxPoint x="-1244" y="1257" as="targetPoint" />
            <Array as="points">
              <mxPoint x="-1668" y="1349" />
              <mxPoint x="-1269" y="1349" />
            </Array>
          </mxGeometry>
        </mxCell>
        <mxCell id="llshWdPmbfucuasrwV5s-60" value="Flow&amp;lt;*&amp;gt;" style="edgeLabel;html=1;align=center;verticalAlign=middle;resizable=0;points=[];fontFamily=Avenir;" parent="llshWdPmbfucuasrwV5s-49" vertex="1" connectable="0">
          <mxGeometry x="-0.0044" y="-2" relative="1" as="geometry">
            <mxPoint x="48" y="-3" as="offset" />
          </mxGeometry>
        </mxCell>
        <mxCell id="llshWdPmbfucuasrwV5s-51" value="&lt;font style=&quot;font-size: 10px;&quot;&gt;&lt;div style=&quot;&quot;&gt;OnOverflow = Suspended&lt;/div&gt;&lt;div style=&quot;&quot;&gt;Mitigates due to variance I/O speed on various devices.&lt;/div&gt;&lt;/font&gt;" style="text;html=1;strokeColor=none;fillColor=none;align=center;verticalAlign=middle;whiteSpace=wrap;rounded=0;fontFamily=Avenir;" parent="1" vertex="1">
          <mxGeometry x="-1532.5" y="1460.75" width="155" height="45.5" as="geometry" />
        </mxCell>
        <mxCell id="llshWdPmbfucuasrwV5s-52" value="&lt;font style=&quot;font-size: 10px;&quot;&gt;Stores recent data / fast memory&lt;/font&gt;" style="text;html=1;strokeColor=none;fillColor=none;align=center;verticalAlign=middle;whiteSpace=wrap;rounded=0;fontFamily=Avenir;" parent="1" vertex="1">
          <mxGeometry x="-1532.5" y="1395.5" width="155" height="30" as="geometry" />
        </mxCell>
        <mxCell id="llshWdPmbfucuasrwV5s-53" value="&lt;font style=&quot;font-size: 10px;&quot;&gt;Stores all data / slow memory&lt;br&gt;has historical data&lt;br&gt;&lt;/font&gt;" style="text;html=1;strokeColor=none;fillColor=none;align=center;verticalAlign=middle;whiteSpace=wrap;rounded=0;fontFamily=Avenir;" parent="1" vertex="1">
          <mxGeometry x="-1532.5" y="1539" width="155" height="30" as="geometry" />
        </mxCell>
        <mxCell id="llshWdPmbfucuasrwV5s-54" value="&lt;font style=&quot;font-size: 10px;&quot;&gt;Access to all DAOs&lt;br&gt;&lt;/font&gt;" style="text;html=1;strokeColor=none;fillColor=none;align=center;verticalAlign=middle;whiteSpace=wrap;rounded=0;fontFamily=Avenir;" parent="1" vertex="1">
          <mxGeometry x="-1542" y="1285" width="155" height="30" as="geometry" />
        </mxCell>
        <mxCell id="llshWdPmbfucuasrwV5s-64" value="" style="endArrow=classic;startArrow=classic;html=1;rounded=1;entryX=0.25;entryY=0;entryDx=0;entryDy=0;exitX=0.518;exitY=1.038;exitDx=0;exitDy=0;exitPerimeter=0;edgeStyle=orthogonalEdgeStyle;curved=0;endFill=1;fontFamily=Avenir;" parent="1" source="llshWdPmbfucuasrwV5s-32" target="llshWdPmbfucuasrwV5s-20" edge="1">
          <mxGeometry width="50" height="50" relative="1" as="geometry">
            <mxPoint x="-1962.0040000000001" y="1342.9999999999998" as="sourcePoint" />
            <mxPoint x="-1754.17" y="1443.01" as="targetPoint" />
            <Array as="points">
              <mxPoint x="-1963" y="1373" />
              <mxPoint x="-1763" y="1373" />
            </Array>
          </mxGeometry>
        </mxCell>
        <mxCell id="llshWdPmbfucuasrwV5s-115" value="Flow&amp;lt;*&amp;gt;" style="edgeLabel;html=1;align=center;verticalAlign=middle;resizable=0;points=[];fontFamily=Avenir;" parent="llshWdPmbfucuasrwV5s-64" vertex="1" connectable="0">
          <mxGeometry x="-0.0227" y="-2" relative="1" as="geometry">
            <mxPoint y="-3" as="offset" />
          </mxGeometry>
        </mxCell>
        <mxCell id="llshWdPmbfucuasrwV5s-65" value="&lt;span style=&quot;font-size: 10px;&quot;&gt;Provides connection state/events/&lt;br&gt;RTT time etc&lt;br&gt;&lt;/span&gt;" style="text;html=1;strokeColor=none;fillColor=none;align=center;verticalAlign=middle;whiteSpace=wrap;rounded=0;fontFamily=Avenir;" parent="1" vertex="1">
          <mxGeometry x="-1985" y="1542" width="155" height="30" as="geometry" />
        </mxCell>
        <mxCell id="llshWdPmbfucuasrwV5s-66" value="&lt;span style=&quot;font-size: 10px;&quot;&gt;Provide node and their modes&lt;br&gt;&lt;/span&gt;" style="text;html=1;strokeColor=none;fillColor=none;align=center;verticalAlign=middle;whiteSpace=wrap;rounded=0;fontFamily=Avenir;" parent="1" vertex="1">
          <mxGeometry x="-1985" y="1509" width="155" height="30" as="geometry" />
        </mxCell>
        <mxCell id="llshWdPmbfucuasrwV5s-68" value="&lt;span style=&quot;font-size: 10px;&quot;&gt;Obvious&lt;/span&gt;" style="text;html=1;strokeColor=none;fillColor=none;align=center;verticalAlign=middle;whiteSpace=wrap;rounded=0;fontFamily=Avenir;" parent="1" vertex="1">
          <mxGeometry x="-1985" y="1481.75" width="155" height="30" as="geometry" />
        </mxCell>
        <mxCell id="llshWdPmbfucuasrwV5s-69" value="&lt;font style=&quot;font-size: 10px;&quot;&gt;Obvious&lt;/font&gt;&lt;span style=&quot;font-size: 10px;&quot;&gt;&lt;br&gt;&lt;/span&gt;" style="text;html=1;strokeColor=none;fillColor=none;align=center;verticalAlign=middle;whiteSpace=wrap;rounded=0;fontFamily=Avenir;" parent="1" vertex="1">
          <mxGeometry x="-1985" y="1456.25" width="155" height="30" as="geometry" />
        </mxCell>
        <mxCell id="llshWdPmbfucuasrwV5s-70" value="" style="endArrow=none;startArrow=classic;html=1;rounded=0;entryX=0.251;entryY=1.115;entryDx=0;entryDy=0;entryPerimeter=0;exitX=0.25;exitY=0;exitDx=0;exitDy=0;startFill=1;endFill=0;fontFamily=Avenir;" parent="1" source="llshWdPmbfucuasrwV5s-31" target="21ea969265ad0168-28" edge="1">
          <mxGeometry width="50" height="50" relative="1" as="geometry">
            <mxPoint x="-1680" y="1724" as="sourcePoint" />
            <mxPoint x="-1630" y="1674" as="targetPoint" />
          </mxGeometry>
        </mxCell>
        <mxCell id="llshWdPmbfucuasrwV5s-71" value="" style="endArrow=none;startArrow=classic;html=1;rounded=0;entryX=0.251;entryY=1.115;entryDx=0;entryDy=0;entryPerimeter=0;exitX=0.25;exitY=0;exitDx=0;exitDy=0;startFill=1;endFill=0;fontFamily=Avenir;" parent="1" edge="1">
          <mxGeometry width="50" height="50" relative="1" as="geometry">
            <mxPoint x="-1922" y="1280" as="sourcePoint" />
            <mxPoint x="-1922" y="1190" as="targetPoint" />
          </mxGeometry>
        </mxCell>
        <mxCell id="llshWdPmbfucuasrwV5s-72" value="&lt;b&gt;Scarlet Stream adapter&lt;/b&gt;" style="swimlane;html=1;fontStyle=0;childLayout=stackLayout;horizontal=1;startSize=26;fillColor=#647687;horizontalStack=0;resizeParent=1;resizeLast=0;collapsible=1;marginBottom=0;swimlaneFillColor=default;align=center;rounded=1;shadow=0;comic=0;labelBackgroundColor=none;strokeWidth=1;fontFamily=Avenir;fontSize=12;fontColor=#ffffff;strokeColor=#314354;" parent="1" vertex="1">
          <mxGeometry x="-1448.5" y="694" width="191" height="80" as="geometry" />
        </mxCell>
        <mxCell id="llshWdPmbfucuasrwV5s-73" value="Coroutine &amp;amp; Channel adapter" style="text;html=1;strokeColor=none;fillColor=none;spacingLeft=4;spacingRight=4;whiteSpace=wrap;overflow=hidden;rotatable=0;points=[[0,0.5],[1,0.5]];portConstraint=eastwest;fontColor=#ffffff;align=center;fontFamily=Avenir;fontStyle=0" parent="llshWdPmbfucuasrwV5s-72" vertex="1">
          <mxGeometry y="26" width="191" height="26" as="geometry" />
        </mxCell>
        <mxCell id="llshWdPmbfucuasrwV5s-74" value="ChannelFlow adapter (Flow)&amp;nbsp;" style="text;html=1;spacingLeft=4;spacingRight=4;whiteSpace=wrap;overflow=hidden;rotatable=0;points=[[0,0.5],[1,0.5]];portConstraint=eastwest;align=center;fontFamily=Avenir;fontStyle=0" parent="llshWdPmbfucuasrwV5s-72" vertex="1">
          <mxGeometry y="52" width="191" height="26" as="geometry" />
        </mxCell>
        <mxCell id="llshWdPmbfucuasrwV5s-75" value="&lt;b&gt;Scarlet Adapters&lt;/b&gt;" style="swimlane;html=1;fontStyle=0;childLayout=stackLayout;horizontal=1;startSize=26;fillColor=#647687;horizontalStack=0;resizeParent=1;resizeLast=0;collapsible=1;marginBottom=0;swimlaneFillColor=default;align=center;rounded=1;shadow=0;comic=0;labelBackgroundColor=none;strokeWidth=1;fontFamily=Avenir;fontSize=12;fontColor=#ffffff;strokeColor=#314354;" parent="1" vertex="1">
          <mxGeometry x="-1751" y="694" width="191" height="80" as="geometry" />
        </mxCell>
        <mxCell id="llshWdPmbfucuasrwV5s-76" value="GSON message adapter" style="text;html=1;strokeColor=none;fillColor=none;spacingLeft=4;spacingRight=4;whiteSpace=wrap;overflow=hidden;rotatable=0;points=[[0,0.5],[1,0.5]];portConstraint=eastwest;fontColor=#ffffff;align=center;fontFamily=Avenir;fontStyle=0" parent="llshWdPmbfucuasrwV5s-75" vertex="1">
          <mxGeometry y="26" width="191" height="26" as="geometry" />
        </mxCell>
        <mxCell id="llshWdPmbfucuasrwV5s-77" value="&lt;span style=&quot;color: rgb(255, 255, 255);&quot;&gt;Protobuf message adapter&lt;/span&gt;" style="text;html=1;spacingLeft=4;spacingRight=4;whiteSpace=wrap;overflow=hidden;rotatable=0;points=[[0,0.5],[1,0.5]];portConstraint=eastwest;align=center;fontFamily=Avenir;fontStyle=0" parent="llshWdPmbfucuasrwV5s-75" vertex="1">
          <mxGeometry y="52" width="191" height="26" as="geometry" />
        </mxCell>
        <mxCell id="llshWdPmbfucuasrwV5s-79" value="" style="endArrow=classic;startArrow=none;html=1;rounded=1;exitX=0.5;exitY=0;exitDx=0;exitDy=0;fontFamily=Avenir;entryX=0.5;entryY=0;entryDx=0;entryDy=0;edgeStyle=orthogonalEdgeStyle;curved=0;startFill=0;" parent="1" source="llshWdPmbfucuasrwV5s-75" target="6BveXCtzFgKmanxAt0sa-5" edge="1">
          <mxGeometry width="50" height="50" relative="1" as="geometry">
            <mxPoint x="-1578" y="1968" as="sourcePoint" />
            <mxPoint x="-1655" y="648" as="targetPoint" />
            <Array as="points">
              <mxPoint x="-1656" y="672" />
              <mxPoint x="-2104" y="672" />
            </Array>
          </mxGeometry>
        </mxCell>
        <mxCell id="llshWdPmbfucuasrwV5s-80" value="" style="endArrow=none;html=1;rounded=0;strokeColor=#6B6B6B;fontFamily=Avenir;" parent="1" edge="1">
          <mxGeometry width="50" height="50" relative="1" as="geometry">
            <mxPoint x="-2321" y="1637" as="sourcePoint" />
            <mxPoint x="-1143" y="1639" as="targetPoint" />
          </mxGeometry>
        </mxCell>
        <mxCell id="llshWdPmbfucuasrwV5s-82" value="&lt;font style=&quot;font-size: 26px;&quot;&gt;Data layer&lt;/font&gt;" style="text;html=1;strokeColor=none;fillColor=none;align=center;verticalAlign=middle;whiteSpace=wrap;rounded=0;rotation=-90;fontFamily=Avenir;" parent="1" vertex="1">
          <mxGeometry x="-2465" y="1477" width="201" height="30" as="geometry" />
        </mxCell>
        <mxCell id="llshWdPmbfucuasrwV5s-83" value="&lt;font style=&quot;font-size: 26px;&quot;&gt;Domain layer&lt;/font&gt;" style="text;html=1;strokeColor=none;fillColor=none;align=center;verticalAlign=middle;whiteSpace=wrap;rounded=0;rotation=-90;fontFamily=Avenir;" parent="1" vertex="1">
          <mxGeometry x="-2460" y="1861" width="201" height="30" as="geometry" />
        </mxCell>
        <mxCell id="llshWdPmbfucuasrwV5s-84" value="&lt;font style=&quot;font-size: 26px;&quot;&gt;&amp;nbsp;UI layer&lt;/font&gt;" style="text;html=1;strokeColor=none;fillColor=none;align=center;verticalAlign=middle;whiteSpace=wrap;rounded=0;rotation=-89;fontFamily=Avenir;" parent="1" vertex="1">
          <mxGeometry x="-2465" y="2270" width="201" height="30" as="geometry" />
        </mxCell>
        <mxCell id="llshWdPmbfucuasrwV5s-85" value="&lt;font style=&quot;font-size: 10px;&quot;&gt;Deserializes/serializes in(out)coming websocket messages/classes&amp;nbsp; with GSON&lt;/font&gt;" style="text;html=1;strokeColor=none;fillColor=none;align=center;verticalAlign=middle;whiteSpace=wrap;rounded=0;fontFamily=Avenir;" parent="1" vertex="1">
          <mxGeometry x="-1983" y="705" width="216" height="30" as="geometry" />
        </mxCell>
        <mxCell id="llshWdPmbfucuasrwV5s-86" value="&lt;font style=&quot;font-size: 10px;&quot;&gt;Deserializes/serializes in(out)coming websocket messages/classes&amp;nbsp; with kotlin-serialize (protobuf format)&lt;/font&gt;&lt;span style=&quot;font-size: 10px;&quot;&gt;&lt;br&gt;&lt;/span&gt;" style="text;html=1;strokeColor=none;fillColor=none;align=center;verticalAlign=middle;whiteSpace=wrap;rounded=0;fontFamily=Avenir;" parent="1" vertex="1">
          <mxGeometry x="-2009" y="727" width="254" height="52" as="geometry" />
        </mxCell>
        <mxCell id="llshWdPmbfucuasrwV5s-87" value="&lt;b&gt;Model mappers&lt;/b&gt;" style="swimlane;html=1;fontStyle=0;childLayout=stackLayout;horizontal=1;startSize=26;fillColor=#f0a30a;horizontalStack=0;resizeParent=1;resizeLast=0;collapsible=1;marginBottom=0;swimlaneFillColor=default;align=center;rounded=1;shadow=0;comic=0;labelBackgroundColor=none;strokeWidth=1;fontFamily=Avenir;fontSize=12;fontColor=#000000;strokeColor=#BD7000;" parent="1" vertex="1">
          <mxGeometry x="-1367" y="1144" width="191" height="55" as="geometry" />
        </mxCell>
        <mxCell id="llshWdPmbfucuasrwV5s-88" value="Network &amp;lt;-&amp;gt; Entity &amp;lt;-&amp;gt; External" style="text;html=1;strokeColor=none;fillColor=none;spacingLeft=4;spacingRight=4;whiteSpace=wrap;overflow=hidden;rotatable=0;points=[[0,0.5],[1,0.5]];portConstraint=eastwest;fontColor=#ffffff;align=center;fontFamily=Avenir;fontStyle=0" parent="llshWdPmbfucuasrwV5s-87" vertex="1">
          <mxGeometry y="26" width="191" height="29" as="geometry" />
        </mxCell>
        <mxCell id="llshWdPmbfucuasrwV5s-89" value="" style="endArrow=classic;startArrow=classic;html=1;rounded=1;exitX=0.5;exitY=0;exitDx=0;exitDy=0;edgeStyle=orthogonalEdgeStyle;fontFamily=Avenir;" parent="1" source="llshWdPmbfucuasrwV5s-20" edge="1">
          <mxGeometry width="50" height="50" relative="1" as="geometry">
            <mxPoint x="-1513" y="1734" as="sourcePoint" />
            <mxPoint x="-1269" y="1196" as="targetPoint" />
            <Array as="points">
              <mxPoint x="-1715" y="1233" />
              <mxPoint x="-1269" y="1233" />
            </Array>
          </mxGeometry>
        </mxCell>
        <mxCell id="llshWdPmbfucuasrwV5s-112" value="&lt;font style=&quot;font-size: 10px;&quot;&gt;Data classes&lt;/font&gt;" style="edgeLabel;html=1;align=center;verticalAlign=middle;resizable=0;points=[];fontFamily=Avenir;" parent="llshWdPmbfucuasrwV5s-89" vertex="1" connectable="0">
          <mxGeometry x="0.3199" relative="1" as="geometry">
            <mxPoint x="3" y="-1" as="offset" />
          </mxGeometry>
        </mxCell>
        <mxCell id="llshWdPmbfucuasrwV5s-90" value="&lt;font style=&quot;font-size: 10px;&quot;&gt;Decouples models between data and domain/ui layer&amp;nbsp;&lt;br&gt;&lt;/font&gt;" style="text;html=1;strokeColor=none;fillColor=none;align=center;verticalAlign=middle;whiteSpace=wrap;rounded=0;fontFamily=Avenir;" parent="1" vertex="1">
          <mxGeometry x="-1546" y="1160" width="155" height="30" as="geometry" />
        </mxCell>
        <mxCell id="llshWdPmbfucuasrwV5s-91" value="&lt;span style=&quot;font-size: 10px;&quot;&gt;Async&lt;br&gt;&lt;/span&gt;" style="text;html=1;strokeColor=none;fillColor=none;align=center;verticalAlign=middle;whiteSpace=wrap;rounded=0;fontFamily=Avenir;" parent="1" vertex="1">
          <mxGeometry x="-1606" y="708" width="216" height="30" as="geometry" />
        </mxCell>
        <mxCell id="llshWdPmbfucuasrwV5s-92" value="&lt;span style=&quot;font-size: 10px;&quot;&gt;Converts to Flow&lt;br&gt;&lt;/span&gt;" style="text;html=1;strokeColor=none;fillColor=none;align=center;verticalAlign=middle;whiteSpace=wrap;rounded=0;fontFamily=Avenir;" parent="1" vertex="1">
          <mxGeometry x="-1606" y="738" width="216" height="30" as="geometry" />
        </mxCell>
        <mxCell id="llshWdPmbfucuasrwV5s-94" value="&lt;span style=&quot;font-size: 10px;&quot;&gt;Keep background work for websocket connections&lt;br&gt;&lt;/span&gt;" style="text;html=1;strokeColor=none;fillColor=none;align=center;verticalAlign=middle;whiteSpace=wrap;rounded=0;fontFamily=Avenir;" parent="1" vertex="1">
          <mxGeometry x="-2223" y="1433" width="155" height="30" as="geometry" />
        </mxCell>
        <mxCell id="llshWdPmbfucuasrwV5s-102" value="" style="endArrow=none;startArrow=classic;html=1;rounded=1;entryX=1;entryY=0.5;entryDx=0;entryDy=0;edgeStyle=orthogonalEdgeStyle;curved=0;exitX=0.5;exitY=0;exitDx=0;exitDy=0;endFill=0;fontFamily=Avenir;" parent="1" source="llshWdPmbfucuasrwV5s-109" target="llshWdPmbfucuasrwV5s-26" edge="1">
          <mxGeometry width="50" height="50" relative="1" as="geometry">
            <mxPoint x="-1336.7000000000003" y="1775.8000000000002" as="sourcePoint" />
            <mxPoint x="-1658" y="1605" as="targetPoint" />
            <Array as="points">
              <mxPoint x="-1724" y="1740" />
              <mxPoint x="-1565" y="1740" />
              <mxPoint x="-1565" y="1527" />
            </Array>
          </mxGeometry>
        </mxCell>
        <mxCell id="llshWdPmbfucuasrwV5s-147" value="Flow&amp;lt;Node&amp;gt;&lt;br&gt;Flow&amp;lt;Trace&amp;gt;" style="edgeLabel;html=1;align=center;verticalAlign=middle;resizable=0;points=[];fontFamily=Avenir;" parent="llshWdPmbfucuasrwV5s-102" vertex="1" connectable="0">
          <mxGeometry x="0.3403" y="1" relative="1" as="geometry">
            <mxPoint x="11" y="51" as="offset" />
          </mxGeometry>
        </mxCell>
        <mxCell id="llshWdPmbfucuasrwV5s-103" value="" style="endArrow=none;html=1;rounded=1;entryX=1;entryY=0.5;entryDx=0;entryDy=0;edgeStyle=orthogonalEdgeStyle;curved=0;endFill=0;fontFamily=Avenir;" parent="1" target="llshWdPmbfucuasrwV5s-21" edge="1">
          <mxGeometry width="50" height="50" relative="1" as="geometry">
            <mxPoint x="-1565" y="1536" as="sourcePoint" />
            <mxPoint x="-1658" y="1605" as="targetPoint" />
          </mxGeometry>
        </mxCell>
        <mxCell id="llshWdPmbfucuasrwV5s-109" value="Chunked node/traces use case" style="swimlane;html=1;fontStyle=0;childLayout=stackLayout;horizontal=1;startSize=26;fillColor=#0050ef;horizontalStack=0;resizeParent=1;resizeLast=0;collapsible=1;marginBottom=0;swimlaneFillColor=default;align=center;rounded=1;shadow=0;comic=0;labelBackgroundColor=none;strokeWidth=1;fontFamily=Avenir;fontSize=12;fontColor=#ffffff;strokeColor=#001DBC;" parent="1" vertex="1">
          <mxGeometry x="-1819" y="1781" width="191" height="80" as="geometry" />
        </mxCell>
        <mxCell id="llshWdPmbfucuasrwV5s-110" value="from in-memory db" style="text;html=1;strokeColor=none;fillColor=none;spacingLeft=4;spacingRight=4;whiteSpace=wrap;overflow=hidden;rotatable=0;points=[[0,0.5],[1,0.5]];portConstraint=eastwest;fontColor=#ffffff;align=center;fontFamily=Avenir;fontStyle=0" parent="llshWdPmbfucuasrwV5s-109" vertex="1">
          <mxGeometry y="26" width="191" height="26" as="geometry" />
        </mxCell>
        <mxCell id="llshWdPmbfucuasrwV5s-111" value="from&amp;nbsp;network shared flow" style="text;html=1;strokeColor=none;fillColor=none;spacingLeft=4;spacingRight=4;whiteSpace=wrap;overflow=hidden;rotatable=0;points=[[0,0.5],[1,0.5]];portConstraint=eastwest;fontColor=#ffffff;align=center;fontFamily=Avenir;fontStyle=0" parent="llshWdPmbfucuasrwV5s-109" vertex="1">
          <mxGeometry y="52" width="191" height="26" as="geometry" />
        </mxCell>
        <mxCell id="llshWdPmbfucuasrwV5s-116" value="&lt;font style=&quot;font-size: 10px;&quot;&gt;Shared flow from network data source via repository directly&lt;br&gt;&lt;/font&gt;" style="text;html=1;strokeColor=none;fillColor=none;align=center;verticalAlign=middle;whiteSpace=wrap;rounded=0;fontFamily=Avenir;" parent="1" vertex="1">
          <mxGeometry x="-1983" y="1831" width="155" height="30" as="geometry" />
        </mxCell>
        <mxCell id="llshWdPmbfucuasrwV5s-117" value="&lt;font style=&quot;font-size: 10px;&quot;&gt;&amp;nbsp;*Observable db table changes via repository&amp;nbsp; &amp;nbsp;&lt;br&gt;&lt;/font&gt;" style="text;html=1;strokeColor=none;fillColor=none;align=center;verticalAlign=middle;whiteSpace=wrap;rounded=0;fontFamily=Avenir;" parent="1" vertex="1">
          <mxGeometry x="-1987" y="1795" width="155" height="30" as="geometry" />
        </mxCell>
        <mxCell id="llshWdPmbfucuasrwV5s-118" value="&lt;font style=&quot;font-size: 10px;&quot;&gt;Reduces frequent UI updates. Max size is limited also&amp;nbsp;&lt;br&gt;&lt;/font&gt;" style="text;html=1;strokeColor=none;fillColor=none;align=center;verticalAlign=middle;whiteSpace=wrap;rounded=0;fontFamily=Avenir;" parent="1" vertex="1">
          <mxGeometry x="-1980" y="1908.5" width="155" height="30" as="geometry" />
        </mxCell>
        <mxCell id="llshWdPmbfucuasrwV5s-125" value="&lt;font size=&quot;1&quot; style=&quot;&quot;&gt;&lt;span style=&quot;font-size: 12px;&quot;&gt;important&lt;/span&gt;&lt;/font&gt;&lt;span style=&quot;font-size: 10px;&quot;&gt;&lt;br&gt;&lt;/span&gt;" style="text;html=1;strokeColor=none;fillColor=none;align=center;verticalAlign=middle;whiteSpace=wrap;rounded=0;fontFamily=Avenir;" parent="1" vertex="1">
          <mxGeometry x="-2036" y="1727" width="155" height="30" as="geometry" />
        </mxCell>
        <mxCell id="llshWdPmbfucuasrwV5s-128" value="" style="endArrow=none;startArrow=classic;html=1;rounded=1;exitX=0.75;exitY=0;exitDx=0;exitDy=0;edgeStyle=orthogonalEdgeStyle;curved=0;startFill=1;endFill=0;fontFamily=Avenir;" parent="1" edge="1">
          <mxGeometry width="50" height="50" relative="1" as="geometry">
            <mxPoint x="-2141.9999999999995" y="1776" as="sourcePoint" />
            <mxPoint x="-1617" y="1486" as="targetPoint" />
            <Array as="points">
              <mxPoint x="-2142" y="1615" />
              <mxPoint x="-1565" y="1615" />
              <mxPoint x="-1565" y="1486" />
            </Array>
          </mxGeometry>
        </mxCell>
        <mxCell id="llshWdPmbfucuasrwV5s-131" value="&lt;b style=&quot;color: rgb(0, 0, 0);&quot;&gt;Pool objects manager&lt;/b&gt;" style="swimlane;html=1;fontStyle=0;childLayout=stackLayout;horizontal=1;startSize=26;fillColor=#e3c800;horizontalStack=0;resizeParent=1;resizeLast=0;collapsible=1;marginBottom=0;swimlaneFillColor=default;align=center;rounded=1;shadow=0;comic=0;labelBackgroundColor=none;strokeWidth=1;fontFamily=Avenir;fontSize=12;fontColor=#000000;strokeColor=#B09500;" parent="1" vertex="1">
          <mxGeometry x="-1371" y="977" width="191" height="80" as="geometry" />
        </mxCell>
        <mxCell id="llshWdPmbfucuasrwV5s-132" value="Initialize hot pool of objects&amp;nbsp;" style="text;html=1;strokeColor=none;fillColor=none;spacingLeft=4;spacingRight=4;whiteSpace=wrap;overflow=hidden;rotatable=0;points=[[0,0.5],[1,0.5]];portConstraint=eastwest;fontColor=#ffffff;align=center;fontFamily=Avenir;fontStyle=0" parent="llshWdPmbfucuasrwV5s-131" vertex="1">
          <mxGeometry y="26" width="191" height="26" as="geometry" />
        </mxCell>
        <mxCell id="llshWdPmbfucuasrwV5s-133" value="Monitor memory allocation" style="text;html=1;spacingLeft=4;spacingRight=4;whiteSpace=wrap;overflow=hidden;rotatable=0;points=[[0,0.5],[1,0.5]];portConstraint=eastwest;align=center;fontFamily=Avenir;fontStyle=0" parent="llshWdPmbfucuasrwV5s-131" vertex="1">
          <mxGeometry y="52" width="191" height="26" as="geometry" />
        </mxCell>
        <mxCell id="llshWdPmbfucuasrwV5s-134" value="" style="endArrow=classic;startArrow=none;html=1;rounded=1;entryX=0.498;entryY=1.03;entryDx=0;entryDy=0;entryPerimeter=0;startFill=0;endFill=1;edgeStyle=orthogonalEdgeStyle;curved=0;fontFamily=Avenir;" parent="1" target="llshWdPmbfucuasrwV5s-133" edge="1">
          <mxGeometry width="50" height="50" relative="1" as="geometry">
            <mxPoint x="-1715" y="1245" as="sourcePoint" />
            <mxPoint x="-1659" y="1605" as="targetPoint" />
            <Array as="points">
              <mxPoint x="-1715" y="1107" />
              <mxPoint x="-1276" y="1107" />
            </Array>
          </mxGeometry>
        </mxCell>
        <mxCell id="llshWdPmbfucuasrwV5s-135" value="Data classes / Entity classes" style="edgeLabel;html=1;align=center;verticalAlign=middle;resizable=0;points=[];fontFamily=Avenir;" parent="llshWdPmbfucuasrwV5s-134" vertex="1" connectable="0">
          <mxGeometry x="0.1101" y="2" relative="1" as="geometry">
            <mxPoint x="32" y="1" as="offset" />
          </mxGeometry>
        </mxCell>
        <mxCell id="llshWdPmbfucuasrwV5s-136" value="" style="endArrow=classic;startArrow=classic;html=1;rounded=0;entryX=0.73;entryY=1.13;entryDx=0;entryDy=0;entryPerimeter=0;exitX=0.709;exitY=0.009;exitDx=0;exitDy=0;exitPerimeter=0;fontFamily=Avenir;" parent="1" source="llshWdPmbfucuasrwV5s-87" target="llshWdPmbfucuasrwV5s-133" edge="1">
          <mxGeometry width="50" height="50" relative="1" as="geometry">
            <mxPoint x="-1709" y="1655" as="sourcePoint" />
            <mxPoint x="-1659" y="1605" as="targetPoint" />
          </mxGeometry>
        </mxCell>
        <mxCell id="llshWdPmbfucuasrwV5s-137" value="&lt;font style=&quot;font-size: 10px;&quot;&gt;Data classes &lt;br&gt;Entity classes&lt;/font&gt;" style="edgeLabel;html=1;align=center;verticalAlign=middle;resizable=0;points=[];fontFamily=Avenir;" parent="llshWdPmbfucuasrwV5s-136" vertex="1" connectable="0">
          <mxGeometry x="0.1111" y="1" relative="1" as="geometry">
            <mxPoint x="3" y="3" as="offset" />
          </mxGeometry>
        </mxCell>
        <mxCell id="llshWdPmbfucuasrwV5s-138" value="&lt;span style=&quot;font-size: 10px;&quot;&gt;&lt;br&gt;&lt;/span&gt;" style="text;html=1;strokeColor=none;fillColor=none;align=center;verticalAlign=middle;whiteSpace=wrap;rounded=0;fontFamily=Avenir;" parent="1" vertex="1">
          <mxGeometry x="-1563" y="1027" width="216" height="30" as="geometry" />
        </mxCell>
        <mxCell id="llshWdPmbfucuasrwV5s-140" value="&lt;font style=&quot;font-size: 10px;&quot;&gt;Cached traces by node id to have recent traces using LinkedHashMap for fast putting&lt;br&gt;&lt;/font&gt;" style="text;html=1;strokeColor=none;fillColor=none;align=center;verticalAlign=middle;whiteSpace=wrap;rounded=0;fontFamily=Avenir;" parent="1" vertex="1">
          <mxGeometry x="-1985" y="1975.75" width="155" height="43.5" as="geometry" />
        </mxCell>
        <mxCell id="llshWdPmbfucuasrwV5s-141" value="&lt;font style=&quot;font-size: 10px;&quot;&gt;Reduced allocation/deallocation of memory between Network &amp;lt;-&amp;gt; Entity &amp;lt;-&amp;gt; External model mappers.&lt;/font&gt;" style="text;html=1;strokeColor=none;fillColor=none;align=center;verticalAlign=middle;whiteSpace=wrap;rounded=0;fontFamily=Avenir;" parent="1" vertex="1">
          <mxGeometry x="-1580" y="1003" width="216" height="47" as="geometry" />
        </mxCell>
        <mxCell id="llshWdPmbfucuasrwV5s-143" value="* Note: Observable queries in Room have one important limitation:&#xa; the query reruns whenever any row in the table is updated, whether or not that row is in the result set. You can ensure that the UI is only notified when the actual query results change by applying the distinctUntilChanged() operator from the corresponding library: Flow&#xa;    &#xa;    Because SQLite database triggers only allow notifications at table level and not at row level,&#xa;    Room can’t know what exactly has changed in the table data,&#xa;    therefore it re-triggers the query defined in the DAO" style="text;whiteSpace=wrap;fontSize=10;align=center;fontFamily=Avenir;" parent="1" vertex="1">
          <mxGeometry x="-1523" y="1786.5" width="350" height="196" as="geometry" />
        </mxCell>
        <mxCell id="llshWdPmbfucuasrwV5s-146" value="" style="endArrow=none;html=1;rounded=0;strokeColor=#6B6B6B;fontFamily=Avenir;" parent="1" edge="1">
          <mxGeometry width="50" height="50" relative="1" as="geometry">
            <mxPoint x="-2333" y="2137" as="sourcePoint" />
            <mxPoint x="-1155" y="2139" as="targetPoint" />
          </mxGeometry>
        </mxCell>
        <mxCell id="llshWdPmbfucuasrwV5s-153" value="Persist routes use case" style="swimlane;html=1;fontStyle=0;childLayout=stackLayout;horizontal=1;startSize=26;fillColor=#0050ef;horizontalStack=0;resizeParent=1;resizeLast=0;collapsible=1;marginBottom=0;swimlaneFillColor=default;align=center;rounded=1;shadow=0;comic=0;labelBackgroundColor=none;strokeWidth=1;fontFamily=Avenir;fontSize=12;fontColor=#ffffff;strokeColor=#001DBC;" parent="1" vertex="1">
          <mxGeometry x="-2239" y="1902.5" width="191" height="67.5" as="geometry" />
        </mxCell>
        <mxCell id="llshWdPmbfucuasrwV5s-154" value="Encapsulates business logic of repositories" style="text;html=1;strokeColor=none;fillColor=none;spacingLeft=4;spacingRight=4;whiteSpace=wrap;overflow=hidden;rotatable=0;points=[[0,0.5],[1,0.5]];portConstraint=eastwest;fontColor=#ffffff;align=center;fontFamily=Avenir;fontStyle=0" parent="llshWdPmbfucuasrwV5s-153" vertex="1">
          <mxGeometry y="26" width="191" height="33" as="geometry" />
        </mxCell>
        <mxCell id="llshWdPmbfucuasrwV5s-155" value="" style="endArrow=classic;html=1;rounded=1;entryX=0;entryY=0.5;entryDx=0;entryDy=0;exitX=0;exitY=0.5;exitDx=0;exitDy=0;edgeStyle=orthogonalEdgeStyle;curved=0;fontFamily=Avenir;endFill=1;" parent="1" source="llshWdPmbfucuasrwV5s-154" target="llshWdPmbfucuasrwV5s-22" edge="1">
          <mxGeometry width="50" height="50" relative="1" as="geometry">
            <mxPoint x="-1804" y="1687" as="sourcePoint" />
            <mxPoint x="-1754" y="1637" as="targetPoint" />
            <Array as="points">
              <mxPoint x="-2239" y="1943" />
              <mxPoint x="-2293" y="1943" />
              <mxPoint x="-2293" y="1410" />
              <mxPoint x="-1847" y="1410" />
              <mxPoint x="-1847" y="1501" />
            </Array>
          </mxGeometry>
        </mxCell>
        <mxCell id="llshWdPmbfucuasrwV5s-157" value="Flow&amp;lt;Route&amp;gt;" style="edgeLabel;html=1;align=center;verticalAlign=middle;resizable=0;points=[];fontFamily=Avenir;" parent="llshWdPmbfucuasrwV5s-155" vertex="1" connectable="0">
          <mxGeometry x="0.2379" relative="1" as="geometry">
            <mxPoint x="6" as="offset" />
          </mxGeometry>
        </mxCell>
        <mxCell id="llshWdPmbfucuasrwV5s-156" value="" style="endArrow=classic;startArrow=classic;html=1;rounded=1;exitX=0.871;exitY=0.011;exitDx=0;exitDy=0;exitPerimeter=0;edgeStyle=orthogonalEdgeStyle;entryX=0.681;entryY=0.008;entryDx=0;entryDy=0;entryPerimeter=0;fontFamily=Avenir;curved=0;" parent="1" source="llshWdPmbfucuasrwV5s-20" target="llshWdPmbfucuasrwV5s-151" edge="1">
          <mxGeometry width="50" height="50" relative="1" as="geometry">
            <mxPoint x="-1562" y="1408" as="sourcePoint" />
            <mxPoint x="-1457" y="2209" as="targetPoint" />
            <Array as="points">
              <mxPoint x="-1645" y="1384" />
              <mxPoint x="-1546" y="1384" />
              <mxPoint x="-1546" y="2221" />
              <mxPoint x="-1546" y="2221" />
            </Array>
          </mxGeometry>
        </mxCell>
        <mxCell id="llshWdPmbfucuasrwV5s-162" value="" style="endArrow=none;startArrow=classic;html=1;rounded=1;entryX=0.25;entryY=1;entryDx=0;entryDy=0;exitX=0.5;exitY=0;exitDx=0;exitDy=0;edgeStyle=orthogonalEdgeStyle;strokeColor=default;curved=0;endFill=0;" parent="1" source="llshWdPmbfucuasrwV5s-153" target="llshWdPmbfucuasrwV5s-23" edge="1">
          <mxGeometry width="50" height="50" relative="1" as="geometry">
            <mxPoint x="-1968" y="1782" as="sourcePoint" />
            <mxPoint x="-1918" y="1732" as="targetPoint" />
            <Array as="points">
              <mxPoint x="-2144" y="1871" />
              <mxPoint x="-2264" y="1871" />
              <mxPoint x="-2264" y="1610" />
              <mxPoint x="-2192" y="1610" />
            </Array>
          </mxGeometry>
        </mxCell>
        <mxCell id="llshWdPmbfucuasrwV5s-163" value="&lt;font style=&quot;font-size: 10px;&quot;&gt;1 s, &lt;br&gt;for example&lt;br&gt;&lt;/font&gt;" style="text;html=1;strokeColor=none;fillColor=none;align=center;verticalAlign=middle;whiteSpace=wrap;rounded=0;fontFamily=Avenir;" parent="1" vertex="1">
          <mxGeometry x="-1678" y="1904" width="155" height="30" as="geometry" />
        </mxCell>
        <mxCell id="llshWdPmbfucuasrwV5s-164" value="&lt;font style=&quot;font-size: 10px;&quot;&gt;&amp;nbsp; Sequence used for intermediate operations in UI layer before render&lt;br&gt;&lt;/font&gt;" style="text;html=1;strokeColor=none;fillColor=none;align=center;verticalAlign=middle;whiteSpace=wrap;rounded=0;fontFamily=Avenir;" parent="1" vertex="1">
          <mxGeometry x="-1974" y="2078" width="155" height="43.5" as="geometry" />
        </mxCell>
        <mxCell id="llshWdPmbfucuasrwV5s-144" value="" style="endArrow=none;startArrow=classic;html=1;rounded=0;entryX=0.494;entryY=1.077;entryDx=0;entryDy=0;entryPerimeter=0;fontFamily=Avenir;endFill=0;" parent="1" target="llshWdPmbfucuasrwV5s-111" edge="1">
          <mxGeometry width="50" height="50" relative="1" as="geometry">
            <mxPoint x="-1728" y="2218" as="sourcePoint" />
            <mxPoint x="-1550" y="1654" as="targetPoint" />
          </mxGeometry>
        </mxCell>
        <mxCell id="llshWdPmbfucuasrwV5s-145" value="Flow&amp;lt;Sequence&amp;lt;Trace&amp;gt;&amp;gt;" style="edgeLabel;html=1;align=center;verticalAlign=middle;resizable=0;points=[];fontFamily=Avenir;" parent="llshWdPmbfucuasrwV5s-144" vertex="1" connectable="0">
          <mxGeometry x="-0.3349" y="2" relative="1" as="geometry">
            <mxPoint x="5" y="-4" as="offset" />
          </mxGeometry>
        </mxCell>
        <mxCell id="llshWdPmbfucuasrwV5s-139" value="&lt;b&gt;Key-value map&lt;/b&gt;" style="html=1;rounded=0;shadow=0;comic=0;labelBackgroundColor=none;strokeWidth=2;fontFamily=Avenir;fontSize=12;align=center;shape=mxgraph.ios7ui.horLines;fillColor=#647687;strokeColor=#314354;fontColor=#ffffff;" parent="1" vertex="1">
          <mxGeometry x="-1801" y="1987" width="166" height="21" as="geometry" />
        </mxCell>
        <mxCell id="llshWdPmbfucuasrwV5s-107" value="&lt;font&gt;&lt;b&gt;Time based&amp;nbsp;&lt;/b&gt;&lt;/font&gt;&lt;b&gt;chunk of traces&lt;/b&gt;" style="html=1;rounded=0;shadow=0;comic=0;labelBackgroundColor=none;strokeWidth=2;fontFamily=Avenir;fontSize=12;align=center;shape=mxgraph.ios7ui.horLines;fillColor=#647687;strokeColor=#314354;fontColor=#ffffff;" parent="1" vertex="1">
          <mxGeometry x="-1801" y="1913" width="166" height="21" as="geometry" />
        </mxCell>
        <mxCell id="6BveXCtzFgKmanxAt0sa-1" value="Stream trace by id use case" style="swimlane;html=1;fontStyle=0;childLayout=stackLayout;horizontal=1;startSize=26;fillColor=#0050ef;horizontalStack=0;resizeParent=1;resizeLast=0;collapsible=1;marginBottom=0;swimlaneFillColor=default;align=center;rounded=1;shadow=0;comic=0;labelBackgroundColor=none;strokeWidth=1;fontFamily=Avenir;fontSize=12;fontColor=#ffffff;strokeColor=#001DBC;" vertex="1" parent="1">
          <mxGeometry x="-2233" y="1776.25" width="191" height="67.5" as="geometry" />
        </mxCell>
        <mxCell id="6BveXCtzFgKmanxAt0sa-2" value="Encapsulates business logic of repositories" style="text;html=1;strokeColor=none;fillColor=none;spacingLeft=4;spacingRight=4;whiteSpace=wrap;overflow=hidden;rotatable=0;points=[[0,0.5],[1,0.5]];portConstraint=eastwest;fontColor=#ffffff;align=center;fontFamily=Avenir;fontStyle=0" vertex="1" parent="6BveXCtzFgKmanxAt0sa-1">
          <mxGeometry y="26" width="191" height="33" as="geometry" />
        </mxCell>
        <mxCell id="6BveXCtzFgKmanxAt0sa-3" value="&lt;font style=&quot;font-size: 26px;&quot;&gt;Network layer&lt;/font&gt;" style="text;html=1;strokeColor=none;fillColor=none;align=center;verticalAlign=middle;whiteSpace=wrap;rounded=0;rotation=-90;fontFamily=Avenir;" vertex="1" parent="1">
          <mxGeometry x="-2465" y="933" width="201" height="30" as="geometry" />
        </mxCell>
        <mxCell id="6BveXCtzFgKmanxAt0sa-4" value="" style="endArrow=none;html=1;rounded=0;strokeColor=#6B6B6B;fontFamily=Avenir;" edge="1" parent="1">
          <mxGeometry width="50" height="50" relative="1" as="geometry">
            <mxPoint x="-1767" y="888" as="sourcePoint" />
            <mxPoint x="-1160" y="888" as="targetPoint" />
          </mxGeometry>
        </mxCell>
        <mxCell id="6BveXCtzFgKmanxAt0sa-5" value="&lt;b&gt;Scarlet&lt;/b&gt;" style="swimlane;html=1;fontStyle=0;childLayout=stackLayout;horizontal=1;startSize=26;fillColor=#6a00ff;horizontalStack=0;resizeParent=1;resizeLast=0;collapsible=1;marginBottom=0;swimlaneFillColor=default;align=center;rounded=1;shadow=0;comic=0;labelBackgroundColor=none;strokeWidth=1;fontFamily=Avenir;fontSize=12;fontColor=#ffffff;strokeColor=#3700CC;" vertex="1" parent="1">
          <mxGeometry x="-2200" y="694" width="191" height="80" as="geometry" />
        </mxCell>
        <mxCell id="6BveXCtzFgKmanxAt0sa-6" value="Trace service imp" style="text;html=1;strokeColor=none;fillColor=none;spacingLeft=4;spacingRight=4;whiteSpace=wrap;overflow=hidden;rotatable=0;points=[[0,0.5],[1,0.5]];portConstraint=eastwest;fontColor=#ffffff;align=center;fontFamily=Avenir;fontStyle=0" vertex="1" parent="6BveXCtzFgKmanxAt0sa-5">
          <mxGeometry y="26" width="191" height="26" as="geometry" />
        </mxCell>
        <mxCell id="6BveXCtzFgKmanxAt0sa-7" value="Route service&amp;nbsp;imp" style="text;html=1;spacingLeft=4;spacingRight=4;whiteSpace=wrap;overflow=hidden;rotatable=0;points=[[0,0.5],[1,0.5]];portConstraint=eastwest;align=center;fontFamily=Avenir;fontStyle=0" vertex="1" parent="6BveXCtzFgKmanxAt0sa-5">
          <mxGeometry y="52" width="191" height="26" as="geometry" />
        </mxCell>
        <mxCell id="6BveXCtzFgKmanxAt0sa-8" value="&lt;b&gt;Ktor&lt;/b&gt;" style="swimlane;html=1;fontStyle=0;childLayout=stackLayout;horizontal=1;startSize=26;fillColor=#6a00ff;horizontalStack=0;resizeParent=1;resizeLast=0;collapsible=1;marginBottom=0;swimlaneFillColor=default;align=center;rounded=1;shadow=0;comic=0;labelBackgroundColor=none;strokeWidth=1;fontFamily=Avenir;fontSize=12;fontColor=#ffffff;strokeColor=#3700CC;" vertex="1" parent="1">
          <mxGeometry x="-2200" y="563" width="191" height="80" as="geometry" />
        </mxCell>
        <mxCell id="6BveXCtzFgKmanxAt0sa-9" value="Trace service imp" style="text;html=1;strokeColor=none;fillColor=none;spacingLeft=4;spacingRight=4;whiteSpace=wrap;overflow=hidden;rotatable=0;points=[[0,0.5],[1,0.5]];portConstraint=eastwest;fontColor=#ffffff;align=center;fontFamily=Avenir;fontStyle=0" vertex="1" parent="6BveXCtzFgKmanxAt0sa-8">
          <mxGeometry y="26" width="191" height="26" as="geometry" />
        </mxCell>
        <mxCell id="6BveXCtzFgKmanxAt0sa-10" value="Route service&amp;nbsp;imp" style="text;html=1;spacingLeft=4;spacingRight=4;whiteSpace=wrap;overflow=hidden;rotatable=0;points=[[0,0.5],[1,0.5]];portConstraint=eastwest;align=center;fontFamily=Avenir;fontStyle=0" vertex="1" parent="6BveXCtzFgKmanxAt0sa-8">
          <mxGeometry y="52" width="191" height="26" as="geometry" />
        </mxCell>
        <mxCell id="6BveXCtzFgKmanxAt0sa-11" value="" style="endArrow=classic;startArrow=none;html=1;rounded=1;exitX=0.5;exitY=0;exitDx=0;exitDy=0;fontFamily=Avenir;entryX=0.382;entryY=0.018;entryDx=0;entryDy=0;edgeStyle=orthogonalEdgeStyle;curved=0;startFill=0;entryPerimeter=0;" edge="1" parent="1" source="llshWdPmbfucuasrwV5s-72" target="6BveXCtzFgKmanxAt0sa-5">
          <mxGeometry width="50" height="50" relative="1" as="geometry">
            <mxPoint x="-1678.98" y="686.96" as="sourcePoint" />
            <mxPoint x="-2127.98" y="686.96" as="targetPoint" />
            <Array as="points">
              <mxPoint x="-1353" y="665" />
              <mxPoint x="-2127" y="665" />
            </Array>
          </mxGeometry>
        </mxCell>
        <mxCell id="6BveXCtzFgKmanxAt0sa-12" value="&lt;b&gt;Ktor Adapter&lt;/b&gt;" style="swimlane;html=1;fontStyle=0;childLayout=stackLayout;horizontal=1;startSize=26;fillColor=#647687;horizontalStack=0;resizeParent=1;resizeLast=0;collapsible=1;marginBottom=0;swimlaneFillColor=default;align=center;rounded=1;shadow=0;comic=0;labelBackgroundColor=none;strokeWidth=1;fontFamily=Avenir;fontSize=12;fontColor=#ffffff;strokeColor=#314354;" vertex="1" parent="1">
          <mxGeometry x="-1753" y="563" width="191" height="52" as="geometry" />
        </mxCell>
        <mxCell id="6BveXCtzFgKmanxAt0sa-13" value="protobuf convent serializer" style="text;html=1;strokeColor=none;fillColor=none;spacingLeft=4;spacingRight=4;whiteSpace=wrap;overflow=hidden;rotatable=0;points=[[0,0.5],[1,0.5]];portConstraint=eastwest;fontColor=#ffffff;align=center;fontFamily=Avenir;fontStyle=0" vertex="1" parent="6BveXCtzFgKmanxAt0sa-12">
          <mxGeometry y="26" width="191" height="26" as="geometry" />
        </mxCell>
        <mxCell id="6BveXCtzFgKmanxAt0sa-15" value="" style="endArrow=classic;startArrow=none;html=1;rounded=1;exitX=0.5;exitY=0;exitDx=0;exitDy=0;fontFamily=Avenir;entryX=0.5;entryY=0;entryDx=0;entryDy=0;edgeStyle=orthogonalEdgeStyle;curved=0;startFill=0;" edge="1" parent="1">
          <mxGeometry width="50" height="50" relative="1" as="geometry">
            <mxPoint x="-1655" y="565" as="sourcePoint" />
            <mxPoint x="-2104" y="565" as="targetPoint" />
            <Array as="points">
              <mxPoint x="-1656" y="565" />
              <mxPoint x="-1656" y="533" />
              <mxPoint x="-2104" y="533" />
            </Array>
          </mxGeometry>
        </mxCell>
        <mxCell id="6BveXCtzFgKmanxAt0sa-16" value="" style="endArrow=classic;html=1;rounded=1;entryX=0.25;entryY=0;entryDx=0;entryDy=0;exitX=0.25;exitY=0;exitDx=0;exitDy=0;edgeStyle=orthogonalEdgeStyle;curved=0;" edge="1" parent="1" source="6BveXCtzFgKmanxAt0sa-8" target="21ea969265ad0168-26">
          <mxGeometry width="50" height="50" relative="1" as="geometry">
            <mxPoint x="-2115" y="814" as="sourcePoint" />
            <mxPoint x="-2065" y="764" as="targetPoint" />
            <Array as="points">
              <mxPoint x="-2152" y="535" />
              <mxPoint x="-2273" y="535" />
              <mxPoint x="-2273" y="971" />
              <mxPoint x="-2014" y="971" />
            </Array>
          </mxGeometry>
        </mxCell>
        <mxCell id="6BveXCtzFgKmanxAt0sa-17" value="" style="endArrow=classic;html=1;rounded=1;entryX=0.75;entryY=0;entryDx=0;entryDy=0;exitX=0.25;exitY=0;exitDx=0;exitDy=0;edgeStyle=orthogonalEdgeStyle;" edge="1" parent="1" source="6BveXCtzFgKmanxAt0sa-5" target="21ea969265ad0168-26">
          <mxGeometry width="50" height="50" relative="1" as="geometry">
            <mxPoint x="-2104" y="943" as="sourcePoint" />
            <mxPoint x="-2054" y="893" as="targetPoint" />
            <Array as="points">
              <mxPoint x="-2152" y="664" />
              <mxPoint x="-2233" y="664" />
              <mxPoint x="-2233" y="935" />
              <mxPoint x="-1919" y="935" />
            </Array>
          </mxGeometry>
        </mxCell>
        <mxCell id="6BveXCtzFgKmanxAt0sa-18" value="" style="endArrow=none;html=1;rounded=0;strokeColor=#6B6B6B;fontFamily=Avenir;" edge="1" parent="1">
          <mxGeometry width="50" height="50" relative="1" as="geometry">
            <mxPoint x="-2322" y="1361" as="sourcePoint" />
            <mxPoint x="-1758" y="1361" as="targetPoint" />
          </mxGeometry>
        </mxCell>
        <mxCell id="6BveXCtzFgKmanxAt0sa-19" value="" style="endArrow=none;html=1;rounded=0;strokeColor=#6B6B6B;fontFamily=Avenir;" edge="1" parent="1">
          <mxGeometry width="50" height="50" relative="1" as="geometry">
            <mxPoint x="-1764" y="1364" as="sourcePoint" />
            <mxPoint x="-1764" y="887" as="targetPoint" />
          </mxGeometry>
        </mxCell>
      </root>
    </mxGraphModel>
  </diagram>
</mxfile>
